<?xml version="1.0" standalone="no"?>
<!DOCTYPE svg PUBLIC "-//W3C//DTD SVG 20010904//EN"
 "http://www.w3.org/TR/2001/REC-SVG-20010904/DTD/svg10.dtd">
<svg version="1.0" xmlns="http://www.w3.org/2000/svg"
 width="799.162235pt" height="686.436734pt" viewBox="0 0 799.162235 686.436734"
 preserveAspectRatio="xMidYMid meet">
<metadata>
Created by potrace 1.12, written by Peter Selinger 2001-2015
</metadata>
<g transform="translate(-16.272194,692.892619) scale(0.100000,-0.100000)"
fill="#fe9331" stroke="none">
<path d="M7485 6916 c-6 -7 -36 -48 -69 -91 -73 -97 -138 -218 -166 -313 -43
-142 -13 -319 66 -393 l26 -24 -25 48 c-56 105 -56 206 0 309 27 50 124 148
146 148 17 0 53 -45 79 -99 20 -41 23 -61 23 -176 0 -124 -2 -135 -37 -234
-20 -56 -32 -99 -28 -95 24 27 113 198 139 268 42 117 54 191 49 298 -7 136
-50 238 -141 336 -34 35 -47 39 -62 18z"/>
<path d="M7152 6350 c0 -14 4 -36 8 -50 6 -20 8 -21 8 -5 0 11 -4 34 -8 50 -7
27 -8 27 -8 5z"/>
<path d="M7050 6320 c0 -5 14 -24 31 -42 l30 -33 -27 43 c-27 43 -34 49 -34
32z"/>
<path d="M7723 6299 c-44 -13 -48 -24 -15 -38 16 -7 58 -45 95 -86 l67 -74
-32 -38 c-73 -84 -129 -116 -208 -116 l-55 0 35 -16 c23 -10 63 -16 115 -16
73 0 87 3 160 40 63 32 100 61 178 138 95 95 114 122 66 97 -13 -7 -44 -10
-75 -8 -53 5 -89 24 -185 100 -31 23 -99 32 -146 17z"/>
<path d="M7181 6158 c33 -143 135 -238 319 -297 70 -22 227 -51 269 -50 31 1
27 2 -69 24 -187 43 -353 147 -471 295 -28 36 -53 66 -54 68 -2 2 1 -16 6 -40z"/>
<path d="M4220 6150 c-221 -27 -472 -110 -740 -245 -58 -29 -145 -72 -195 -95
-265 -123 -485 -345 -623 -628 -27 -55 -62 -141 -78 -191 l-28 -90 -113 -101
c-232 -207 -422 -445 -633 -796 -50 -83 -91 -134 -175 -219 -158 -160 -311
-253 -520 -316 -115 -35 -147 -49 -153 -67 -4 -14 6 -13 152 15 214 41 414
137 568 271 94 82 172 176 297 355 304 435 519 661 655 686 116 22 216 -54
359 -274 43 -66 117 -178 163 -249 163 -249 291 -384 429 -454 84 -43 140 -55
242 -51 72 3 99 9 146 33 142 69 206 235 207 536 0 317 -76 717 -235 1235 -62
200 -113 344 -100 280 40 -187 79 -343 91 -356 16 -18 19 -49 4 -49 -5 0 -7
-6 -5 -12 22 -63 90 -546 105 -751 29 -389 -52 -635 -229 -695 -140 -48 -340
70 -471 277 -158 250 -208 321 -289 401 -48 47 -111 99 -141 117 -61 36 -170
67 -207 60 -23 -4 -24 -3 -18 37 13 79 85 278 141 387 127 248 283 401 521
510 48 22 149 71 223 109 305 155 582 218 898 207 257 -9 392 -48 660 -191 87
-47 235 -97 342 -118 36 -6 135 -11 220 -11 127 0 179 5 289 27 124 25 417
113 451 136 19 12 13 12 -30 0 -184 -55 -456 -93 -670 -93 -261 0 -328 17
-624 167 -210 107 -360 163 -505 190 -106 20 -284 27 -381 16z"/>
<path d="M6755 5984 c-48 -12 -212 -68 -238 -81 l-27 -14 27 -37 c14 -20 56
-66 93 -102 106 -104 241 -158 365 -147 l62 6 7 -46 c3 -25 6 -103 6 -172 -1
-358 -133 -515 -570 -674 -336 -123 -418 -155 -533 -207 -221 -101 -380 -203
-437 -281 -52 -73 -34 -115 49 -113 66 2 105 22 249 123 161 113 251 161 477
251 183 74 374 163 455 215 25 15 86 69 136 119 152 153 221 315 231 546 3 71
1 161 -5 207 -22 157 -87 347 -135 390 -15 14 -39 18 -106 20 -47 1 -95 -1
-106 -3z"/>
<path d="M1161 5891 c-21 -5 -16 -9 35 -30 171 -70 333 -169 409 -251 118
-128 121 -130 156 -129 l34 1 -31 9 c-38 11 -59 35 -112 125 -22 39 -61 93
-86 121 -25 28 -46 54 -46 57 0 8 59 -1 134 -20 74 -19 164 -60 242 -109 l59
-37 -35 37 c-47 50 -151 117 -228 148 -161 66 -433 106 -531 78z"/>
<path d="M2060 5761 c-28 -9 -90 -40 -90 -45 0 -2 17 2 38 10 61 22 153 18
192 -8 69 -47 57 -95 -36 -146 -48 -26 -68 -46 -94 -88 -37 -61 -67 -82 -162
-115 -37 -12 -80 -33 -95 -46 l-28 -23 35 19 c19 11 64 27 99 36 107 27 136
47 173 117 27 51 42 67 78 85 98 49 261 56 354 15 27 -12 51 -20 54 -18 10 11
-98 66 -148 76 -108 22 -125 29 -165 71 -60 63 -128 83 -205 60z"/>
<path d="M1195 5741 c-36 -8 -30 -12 60 -41 69 -23 227 -97 275 -129 14 -10
43 -28 65 -40 l40 -23 -40 35 c-123 108 -160 147 -140 147 15 0 8 8 -25 30
-41 27 -52 30 -125 29 -44 -1 -93 -4 -110 -8z"/>
<path d="M1660 5692 c0 -20 61 -101 96 -128 62 -49 73 -50 23 -2 -47 44 -82
92 -73 101 7 6 77 -10 121 -28 52 -22 52 -11 1 13 -89 41 -168 62 -168 44z"/>
<path d="M2177 5694 c-9 -10 2 -24 19 -24 8 0 14 7 14 15 0 15 -21 21 -33 9z"/>
<path d="M5240 5656 c-15 -24 -101 -122 -207 -236 -28 -30 -50 -56 -48 -58 2
-2 16 3 32 11 52 27 186 50 290 51 85 1 100 3 86 14 -9 6 -20 12 -24 12 -3 0
-9 18 -12 40 -6 49 -45 103 -86 120 -26 10 -29 15 -20 32 16 29 6 42 -11 14z"/>
<path d="M1666 5423 c-27 -132 -34 -283 -16 -359 5 -23 19 -63 30 -89 20 -47
21 -48 41 -29 35 32 69 109 69 159 0 24 -9 79 -21 120 -11 42 -21 106 -21 143
-1 56 -2 62 -10 37 -5 -16 -6 -79 -3 -140 5 -89 4 -114 -9 -130 -14 -19 -15
-19 -33 20 -14 32 -18 67 -18 168 0 70 -1 127 -2 127 -1 0 -4 -12 -7 -27z"/>
<path d="M6620 5416 c0 -9 7 -16 16 -16 9 0 14 5 12 12 -6 18 -28 21 -28 4z"/>
<path d="M6546 5393 c-12 -12 -6 -33 9 -33 8 0 15 6 15 14 0 17 -14 28 -24 19z"/>
<path d="M6455 5350 c-8 -14 3 -30 21 -30 8 0 14 9 14 20 0 21 -24 28 -35 10z"/>
<path d="M6650 5345 c0 -8 5 -15 10 -15 6 0 10 7 10 15 0 8 -4 15 -10 15 -5 0
-10 -7 -10 -15z"/>
<path d="M6365 5310 c-4 -7 -3 -16 3 -22 14 -14 45 -2 40 15 -6 16 -34 21 -43
7z"/>
<path d="M6585 5300 c-7 -12 2 -30 16 -30 5 0 9 9 9 20 0 21 -15 27 -25 10z"/>
<path d="M6660 5240 c0 -13 5 -20 13 -17 6 2 12 10 12 17 0 7 -6 15 -12 18 -8
2 -13 -5 -13 -18z"/>
<path d="M6517 5244 c-14 -14 -7 -35 11 -32 9 2 17 10 17 17 0 16 -18 25 -28
15z"/>
<path d="M6434 5169 c-9 -15 12 -33 30 -26 9 4 16 13 16 22 0 17 -35 21 -46 4z"/>
<path d="M6604 5169 c-3 -6 -2 -15 4 -21 13 -13 32 -2 32 18 0 16 -26 19 -36
3z"/>
<path d="M6550 5080 c0 -13 7 -20 20 -20 13 0 20 7 20 20 0 13 -7 20 -20 20
-13 0 -20 -7 -20 -20z"/>
<path d="M869 4938 c-92 -33 -173 -84 -231 -147 -49 -53 -103 -148 -119 -206
l-8 -30 27 35 c163 211 354 302 571 270 41 -6 76 -8 78 -6 11 10 -35 56 -77
76 -67 34 -159 36 -241 8z"/>
<path d="M967 4792 c-20 -22 -22 -48 -5 -58 7 -4 8 -3 4 5 -21 33 31 73 63 48
14 -11 14 -10 2 6 -17 22 -44 22 -64 -1z"/>
<path d="M1174 4796 c-11 -8 -29 -33 -39 -56 -26 -57 -15 -73 78 -109 24 -10
27 -15 27 -61 0 -35 4 -49 11 -44 19 11 49 87 49 124 0 46 -31 111 -65 138
-33 26 -35 26 -61 8z"/>
<path d="M992 4768 c-17 -17 -15 -35 4 -42 17 -6 44 9 44 25 0 16 -36 29 -48
17z"/>
<path d="M6715 4619 c-149 -125 -388 -268 -940 -559 -397 -209 -560 -306 -612
-362 -20 -22 -36 -67 -138 -406 -66 -218 -126 -378 -199 -525 l-63 -128 38
-20 c21 -10 42 -19 47 -19 19 0 147 308 230 552 27 78 71 219 97 312 32 109
57 178 72 196 41 49 260 191 633 410 535 314 712 429 865 564 61 54 38 42 -30
-15z"/>
<path d="M862 4570 c-112 -30 -121 -41 -27 -34 159 13 254 -30 303 -134 24
-51 27 -68 26 -162 0 -62 -8 -133 -18 -174 -9 -38 -15 -71 -12 -73 2 -2 14 38
27 89 18 71 23 122 24 218 0 112 -2 130 -24 170 -34 66 -59 89 -115 105 -64
19 -94 18 -184 -5z"/>
<path d="M914 4475 c15 -40 27 -174 21 -235 -17 -183 -66 -355 -154 -547 -110
-241 -281 -499 -462 -698 -39 -42 -52 -61 -34 -48 27 19 184 182 291 303 296
334 518 705 555 928 27 163 -45 279 -190 308 -30 6 -34 5 -27 -11z"/>
<path d="M411 4388 c-45 -77 -105 -237 -136 -357 -51 -202 -55 -425 -11 -586
l14 -50 1 90 c3 304 38 516 135 834 20 63 34 117 31 119 -2 2 -17 -20 -34 -50z"/>
<path d="M684 4303 c21 -73 26 -113 27 -195 1 -165 -47 -332 -154 -543 -57
-112 -184 -312 -230 -362 -11 -13 -18 -23 -15 -23 5 0 60 64 121 140 81 101
232 346 287 464 131 287 127 472 -13 525 -25 10 -28 9 -23 -6z"/>
<path d="M997 3723 c-13 -35 -102 -167 -143 -213 l-38 -42 40 8 c112 20 157
78 152 197 -2 50 -5 65 -11 50z"/>
<path d="M5620 3649 c-267 -147 -421 -592 -393 -1144 4 -88 7 -169 6 -180 -8
-64 -18 -90 -51 -127 -34 -38 -35 -40 -12 -33 32 10 86 50 105 78 36 56 47
114 56 307 5 107 12 202 16 210 3 8 12 -15 20 -53 19 -93 66 -232 120 -359 43
-100 63 -130 63 -93 0 49 163 302 265 413 37 40 69 71 72 69 2 -2 -10 -34 -26
-70 -54 -120 -103 -290 -131 -452 -16 -97 -29 -310 -23 -372 l6 -58 14 80 c31
184 131 425 250 601 86 128 115 208 120 339 6 124 -14 255 -61 399 -64 195
-189 420 -254 459 -45 26 -99 21 -162 -14z"/>
<path d="M3283 3640 c-39 -16 -30 -60 22 -117 l45 -48 -35 59 c-19 32 -32 63
-29 67 9 16 58 9 109 -15 52 -24 265 -157 265 -166 0 -3 -19 -13 -43 -23 -23
-9 -55 -29 -72 -42 l-30 -26 30 15 c33 15 125 32 125 22 0 -11 -76 -44 -129
-55 -60 -13 -141 -53 -168 -84 -15 -17 -10 -16 27 6 25 15 90 38 144 52 196
51 219 109 84 206 -102 73 -179 117 -242 139 -65 22 -71 23 -103 10z"/>
<path d="M978 3496 c-38 -25 -75 -95 -84 -156 l-6 -45 31 60 c49 97 72 115
156 125 45 5 48 7 29 17 -39 22 -93 22 -126 -1z"/>
<path d="M3110 3483 c-14 -3 -58 -20 -98 -39 -112 -54 -209 -161 -290 -319
-87 -170 -261 -302 -413 -313 -83 -6 -109 0 -142 34 -89 89 50 230 167 169 25
-13 27 -13 16 0 -7 8 -29 19 -49 25 -114 30 -227 -92 -175 -190 51 -94 197
-104 363 -24 82 40 217 178 267 274 l39 75 52 -3 c28 -1 72 -9 97 -16 25 -8
46 -12 46 -10 0 10 -126 64 -147 64 -27 0 -28 3 -7 35 13 20 25 25 58 25 37 0
159 -26 211 -44 l20 -8 -20 17 c-32 26 -86 52 -150 70 l-59 18 32 28 c26 23
38 27 64 23 45 -8 127 -34 163 -51 l30 -15 -20 21 c-11 11 -49 36 -84 55 l-64
34 32 17 c40 20 91 14 170 -21 29 -13 56 -24 58 -24 9 0 -53 48 -82 63 l-30
15 27 7 c15 4 45 5 67 3 22 -2 37 0 35 4 -5 8 -140 9 -184 1z"/>
<path d="M3526 3443 c-13 -14 -5 -33 14 -33 11 0 20 6 20 14 0 15 -24 28 -34
19z"/>
<path d="M770 3400 c-39 -6 -33 -7 38 -8 49 -1 82 2 82 8 0 11 -50 11 -120 0z"/>
<path d="M1240 3281 c-87 -27 -122 -76 -160 -226 -58 -223 -20 -590 91 -887
41 -110 48 -226 24 -410 -19 -148 -13 -246 25 -389 34 -131 125 -318 196 -402
l26 -30 -9 39 c-35 172 47 241 362 304 252 50 349 84 410 146 53 53 65 90 75
237 11 159 27 225 81 335 67 138 180 232 329 276 31 10 120 21 201 25 134 8
151 11 200 37 65 36 104 89 120 162 26 132 52 222 85 297 19 45 34 91 34 103
0 12 6 22 14 22 8 0 23 16 35 35 11 19 16 35 11 35 -5 0 -24 13 -43 29 l-33
30 -62 -55 c-54 -49 -61 -58 -56 -84 5 -22 1 -34 -18 -53 -13 -13 -30 -26 -38
-29 -10 -3 -10 -9 -1 -25 17 -33 13 -60 -11 -83 -27 -25 -68 -26 -99 -2 -13
10 -40 25 -59 34 -51 23 -197 68 -222 68 -12 0 -45 -16 -74 -35 -74 -50 -208
-112 -279 -130 -149 -38 -285 1 -356 102 -14 20 -19 21 -53 11 l-38 -12 -46
54 c-59 71 -234 245 -295 296 -88 71 -221 154 -271 169 -55 16 -60 17 -96 6z
m101 -107 c58 -29 189 -136 259 -211 84 -88 177 -222 210 -298 53 -124 9 -259
-102 -316 -47 -24 -65 -24 -128 1 -101 40 -140 23 -186 -77 -35 -77 -56 -92
-109 -79 -50 13 -72 46 -94 143 -72 313 -67 635 12 793 34 68 69 79 138 44z
m724 -1341 c86 -45 126 -114 124 -215 -1 -59 -2 -61 -11 -28 -26 96 -34 113
-65 149 -49 58 -101 73 -273 80 l-145 6 65 17 c93 25 250 20 305 -9z m10 -103
c0 -18 -6 -26 -21 -28 -23 -3 -37 18 -27 44 10 25 48 13 48 -16z m-281 -45
c68 -103 160 -147 270 -128 33 6 62 9 64 8 7 -6 -94 -35 -122 -35 -88 0 -177
62 -230 160 -15 27 -25 50 -23 50 2 0 21 -25 41 -55z m171 -61 c19 -3 53 -2
75 4 22 5 40 8 40 6 0 -12 -65 -34 -100 -34 -51 0 -86 22 -111 72 l-20 39 40
-40 c25 -25 53 -42 76 -47z"/>
<path d="M3607 3256 c-20 -8 -62 -29 -93 -47 l-55 -34 34 -8 c21 -5 37 -16 40
-27 4 -17 7 -17 53 6 67 34 115 32 147 -6 29 -33 64 -120 73 -180 6 -34 10
-40 30 -40 24 0 24 0 25 -132 1 -121 2 -128 11 -73 15 97 4 300 -21 369 -28
80 -57 123 -100 151 -47 31 -97 38 -144 21z"/>
<path d="M552 3150 c-29 -40 -29 -40 -15 -92 18 -66 11 -314 -11 -433 -8 -43
-13 -81 -11 -83 6 -6 52 153 70 241 29 144 32 407 5 407 -4 0 -22 -18 -38 -40z"/>
<path d="M3230 3130 c-42 -34 -127 -81 -183 -100 -32 -12 -43 -19 -29 -20 29
0 156 52 202 84 l35 23 40 -25 c22 -14 58 -40 79 -59 66 -55 116 -37 84 30
-15 32 -15 32 16 42 44 14 41 40 -4 38 -79 -3 -100 -7 -89 -14 7 -4 28 -5 48
-3 l36 4 -31 -11 -32 -11 20 -34 c30 -52 17 -62 -28 -23 -32 30 -130 100 -137
99 -1 0 -13 -9 -27 -20z"/>
<path d="M2152 3054 c-94 -47 -131 -159 -83 -252 91 -177 363 -148 659 70 57
42 71 63 20 29 -63 -42 -228 -121 -304 -147 -171 -57 -306 -22 -350 91 -38
101 53 215 173 215 32 0 74 -18 102 -43 l24 -22 -14 23 c-20 33 -81 62 -132
62 -26 0 -63 -10 -95 -26z"/>
<path d="M461 3052 c-8 -9 -40 -44 -71 -77 l-57 -60 9 -75 c12 -88 4 -453 -12
-590 -26 -222 -106 -637 -155 -803 -27 -90 -8 -61 38 60 116 301 196 632 248
1018 21 163 38 545 23 545 -5 -1 -15 -8 -23 -18z"/>
<path d="M2975 2951 c17 -15 40 -41 53 -56 16 -19 29 -25 43 -21 47 15 62 15
32 1 -37 -17 -43 -46 -17 -84 12 -17 13 -26 5 -34 -15 -15 -39 0 -69 43 -23
34 -140 140 -155 140 -4 0 23 -31 60 -68 38 -37 76 -82 85 -100 21 -39 62 -61
86 -45 22 13 27 50 11 80 -12 22 -11 27 6 39 39 28 55 44 55 54 0 20 -32 22
-71 5 l-40 -18 -47 46 c-26 26 -52 47 -57 47 -6 0 4 -13 20 -29z"/>
<path d="M4590 2574 c0 -35 70 -329 111 -465 l41 -136 -50 -50 c-52 -52 -85
-124 -66 -143 6 -6 17 9 29 43 15 40 42 74 116 148 105 106 170 149 266 175
35 9 63 22 63 28 0 18 -55 130 -94 190 -50 78 -129 152 -200 188 -48 25 -78
32 -138 36 -71 4 -78 3 -78 -14z"/>
<path d="M3780 2528 c-6 -24 -23 -79 -38 -123 -25 -71 -27 -87 -19 -145 17
-132 -6 -295 -58 -407 -22 -49 -23 -55 -9 -99 30 -99 11 -266 -45 -399 -25
-59 -3 -36 34 35 55 109 83 260 66 360 -8 50 -7 60 19 115 41 84 60 193 60
335 0 94 5 143 24 218 41 167 40 152 7 152 -27 0 -31 -4 -41 -42z"/>
<path d="M4528 2363 c-41 -28 -39 -22 -68 -215 -38 -253 -106 -484 -181 -615
-17 -29 -53 -78 -81 -108 -50 -55 -51 -57 -68 -163 -64 -389 -224 -735 -440
-953 -96 -96 -175 -153 -294 -211 -44 -21 -67 -36 -51 -33 89 19 269 125 390
230 212 184 419 567 510 945 10 41 24 79 31 83 24 14 103 124 144 199 70 130
136 337 180 564 l20 101 -26 99 c-14 55 -27 100 -28 100 0 1 -18 -10 -38 -23z"/>
<path d="M5213 2154 c-35 -18 -79 -58 -94 -86 -8 -14 -2 -13 26 7 96 65 228
32 255 -63 21 -78 10 -149 -42 -262 -31 -65 -39 -131 -24 -178 6 -19 13 -22
31 -18 27 7 77 -12 69 -25 -3 -5 0 -9 5 -9 18 0 12 -38 -6 -43 -14 -3 -12 -6
10 -15 53 -22 89 -14 176 40 25 16 56 28 70 28 34 0 117 -39 159 -75 49 -41
119 -136 152 -207 l30 -63 0 65 c0 182 -85 322 -264 435 -63 40 -78 55 -86 84
-5 20 -10 43 -10 52 0 9 -18 52 -40 96 -48 96 -132 184 -210 221 -69 33 -161
40 -207 16z m313 -372 c18 -11 41 -64 49 -109 14 -86 -41 -116 -75 -40 -37 80
-19 179 26 149z"/>
<path d="M2911 1830 c-102 -37 -161 -120 -161 -225 0 -55 1 -57 18 -42 17 15
24 15 91 2 84 -18 129 -13 188 21 50 29 88 88 103 162 12 56 29 72 77 73 l28
0 -25 11 c-14 6 -79 12 -145 14 -103 4 -128 2 -174 -16z m124 -100 c0 -16 -6
-26 -18 -28 -19 -4 -32 20 -23 44 9 25 41 13 41 -16z m46 -52 c-5 -14 -24 -37
-42 -52 -29 -25 -39 -28 -87 -24 -32 3 -60 12 -70 22 -16 16 -15 17 11 7 63
-24 132 -3 173 52 23 30 28 28 15 -5z"/>
<path d="M4590 1691 c0 -6 6 -11 14 -11 12 0 12 -7 4 -37 -13 -47 -2 -119 23
-144 10 -10 19 -25 20 -31 0 -7 4 -4 9 7 16 37 11 148 -8 185 -16 33 -62 56
-62 31z"/>
<path d="M5916 1660 c4 -8 26 -37 49 -65 151 -181 214 -373 201 -615 -11 -210
-61 -376 -158 -525 l-39 -60 41 45 c67 73 156 214 189 298 112 290 35 593
-219 862 -39 41 -68 68 -64 60z"/>
<path d="M4512 1343 c-57 -113 -77 -196 -76 -323 1 -97 5 -128 28 -198 15 -46
29 -82 32 -80 2 2 -1 31 -6 64 -25 151 -5 418 40 536 27 71 17 72 -18 1z"/>
<path d="M2291 1211 c-7 -71 -10 -138 -6 -150 3 -12 33 -39 65 -61 36 -24 60
-48 62 -61 2 -12 15 -31 30 -42 23 -17 31 -19 53 -9 14 7 33 28 40 46 9 20 34
48 60 66 75 51 78 62 64 182 -7 57 -15 106 -18 110 -3 4 -4 -44 -2 -107 l3
-115 -31 16 c-26 13 -40 14 -86 4 -42 -9 -68 -9 -108 1 -40 8 -59 9 -75 0 -41
-22 -42 -17 -35 119 3 72 4 130 2 130 -3 0 -11 -58 -18 -129z"/>
<path d="M4356 1069 c-19 -23 -43 -65 -53 -93 -23 -65 -23 -189 0 -273 16 -59
86 -227 93 -220 2 1 -8 34 -22 72 -14 38 -32 114 -40 170 -21 136 -8 237 41
338 14 26 22 47 20 47 -2 0 -19 -19 -39 -41z"/>
<path d="M1807 1005 c-101 -21 -220 -61 -327 -111 -90 -42 -250 -132 -250
-139 0 -2 56 25 124 61 204 107 385 163 601 188 l120 13 -100 1 c-55 0 -131
-6 -168 -13z"/>
<path d="M2885 1015 c6 -2 59 -9 118 -15 193 -20 411 -88 597 -186 47 -25 74
-36 60 -25 -41 34 -259 137 -360 171 -122 42 -223 59 -335 59 -49 0 -85 -2
-80 -4z"/>
<path d="M1924 960 c-155 -40 -297 -117 -481 -259 -40 -31 -72 -59 -73 -63 0
-4 38 22 84 57 182 137 413 246 581 274 l50 9 -45 0 c-25 1 -77 -7 -116 -18z"/>
<path d="M2935 964 c208 -50 425 -161 619 -316 l61 -49 -54 50 c-183 170 -504
333 -650 330 -32 -1 -29 -2 24 -15z"/>
<path d="M2025 936 c-152 -48 -372 -216 -494 -377 -20 -26 0 -9 50 42 153 156
291 257 433 315 81 34 87 44 11 20z"/>
<path d="M2911 927 c155 -64 273 -149 437 -313 138 -138 132 -119 -9 29 -138
147 -273 242 -408 288 -75 26 -88 23 -20 -4z"/>
<path d="M5085 903 c-83 -38 -161 -48 -230 -30 -29 7 -29 7 -10 -9 33 -27 118
-64 147 -64 25 0 29 -6 48 -67 l20 -66 -27 -29 c-30 -32 -25 -36 13 -11 23 15
33 15 86 4 77 -16 83 -9 12 13 -55 17 -57 19 -86 83 l-29 65 78 74 c43 40 74
73 68 73 -5 0 -46 -17 -90 -36z"/>
<path d="M4701 894 c-2 -60 19 -153 45 -198 75 -131 193 -187 394 -185 l105 1
-80 13 c-108 17 -158 31 -233 68 -119 58 -204 169 -222 291 -7 50 -8 50 -9 10z"/>
<path d="M5493 843 c15 -2 37 -2 50 0 12 2 0 4 -28 4 -27 0 -38 -2 -22 -4z"/>
<path d="M2471 828 c-1 -24 -70 -72 -125 -88 -25 -7 -69 -10 -97 -8 -37 4 -47
2 -34 -4 39 -22 133 -22 194 1 l60 22 63 -22 c73 -24 165 -22 214 5 25 14 26
16 4 9 -14 -4 -54 -8 -90 -8 -54 0 -75 6 -120 31 -34 20 -57 40 -61 55 -5 16
-7 18 -8 7z"/>
<path d="M5775 712 c-33 -14 -83 -40 -112 -57 -28 -16 -91 -53 -140 -82 -182
-107 -356 -138 -519 -94 -43 12 -89 29 -101 37 -17 10 -21 11 -17 1 7 -19 94
-73 156 -98 31 -12 86 -23 133 -26 151 -10 282 45 475 198 63 50 134 102 158
116 40 24 51 34 35 32 -5 0 -35 -12 -68 -27z"/>
</g>
</svg>
