<?xml version="1.0" standalone="no"?>
<!DOCTYPE svg PUBLIC "-//W3C//DTD SVG 20010904//EN"
 "http://www.w3.org/TR/2001/REC-SVG-20010904/DTD/svg10.dtd">
<svg version="1.0" xmlns="http://www.w3.org/2000/svg"
 width="987.097884pt" height="1000.019672pt" viewBox="0 0 987.097884 1000.019672"
 preserveAspectRatio="xMidYMid meet">
<metadata>
Created by potrace 1.12, written by Peter Selinger 2001-2015
</metadata>
<g transform="translate(-0.010656,1000.019672) scale(0.100000,-0.100000)"
fill="#f6ca38" stroke="none">
<path d="M6074 9982 c-294 -102 -486 -532 -569 -1273 -22 -196 -31 -729 -16
-940 52 -710 264 -1423 540 -1814 71 -101 200 -230 274 -274 181 -107 354
-125 554 -57 564 192 1139 1037 1203 1769 40 459 -146 1105 -470 1626 -115
186 -235 337 -390 492 -210 210 -378 328 -585 408 -193 76 -425 103 -541 63z"/>
<path d="M4240 9964 c-114 -20 -158 -30 -250 -60 -216 -69 -502 -232 -735
-419 -55 -44 -162 -141 -239 -215 -559 -544 -896 -1208 -896 -1765 0 -443 203
-989 494 -1327 142 -165 347 -295 531 -339 76 -18 111 -20 225 -16 167 6 263
32 435 117 275 137 531 375 744 690 247 367 380 720 437 1161 21 168 30 692
15 886 -54 688 -227 1132 -489 1260 -48 23 -70 28 -152 29 -52 1 -106 0 -120
-2z"/>
<path d="M835 7571 c-233 -68 -486 -307 -620 -586 -143 -298 -215 -661 -215
-1093 0 -554 140 -1075 382 -1417 200 -284 578 -527 915 -591 106 -20 297 -15
388 10 381 105 693 509 800 1038 78 390 43 811 -93 1126 -42 96 -296 532 -430
737 -246 377 -482 626 -695 729 -40 20 -99 43 -132 51 -79 20 -224 18 -300 -4z"/>
<path d="M8854 7130 c-395 -103 -837 -537 -1113 -1090 -139 -279 -195 -489
-194 -720 2 -437 167 -982 407 -1345 71 -107 246 -285 328 -334 281 -164 568
-122 873 130 325 270 615 797 695 1267 58 336 -10 987 -146 1401 -83 254 -184
432 -316 557 -116 110 -224 154 -378 153 -49 0 -115 -8 -156 -19z"/>
<path d="M4746 6039 c-209 -27 -436 -116 -631 -247 -253 -170 -467 -389 -900
-922 -256 -315 -379 -455 -544 -620 -199 -198 -323 -301 -733 -609 -394 -294
-491 -374 -623 -513 -174 -182 -280 -354 -343 -554 -46 -145 -63 -250 -69
-426 -29 -804 416 -1555 1137 -1922 291 -148 554 -214 890 -223 375 -10 575
41 1030 260 436 210 622 261 965 260 348 0 522 -46 950 -250 455 -218 656
-273 993 -273 829 0 1564 476 1909 1236 161 355 221 807 152 1146 -53 265
-166 472 -374 687 -141 146 -297 270 -626 500 -712 497 -891 665 -1322 1236
-369 490 -497 645 -658 800 -257 247 -520 386 -811 429 -113 17 -280 19 -392
5z"/>
</g>
</svg>
