<?xml version="1.0" standalone="no"?>
<!DOCTYPE svg PUBLIC "-//W3C//DTD SVG 20010904//EN"
 "http://www.w3.org/TR/2001/REC-SVG-20010904/DTD/svg10.dtd">
<svg version="1.0" xmlns="http://www.w3.org/2000/svg"
 width="486.655621pt" height="372.320459pt" viewBox="0 0 486.655621 372.320459"
 preserveAspectRatio="xMidYMid meet">
<metadata>
Created by potrace 1.12, written by Peter Selinger 2001-2015
</metadata>
<g transform="translate(-1.257429,374.871694) scale(0.100000,-0.100000)"
fill="#ffffff" stroke="none">
<path d="M3023 3735 c-43 -18 -97 -76 -276 -295 -84 -102 -172 -207 -196 -234
-67 -76 -85 -125 -86 -228 l0 -87 71 -138 c40 -76 84 -178 99 -228 29 -95 45
-122 84 -136 84 -33 232 123 248 262 3 27 9 51 12 53 4 3 28 -11 54 -30 43
-32 47 -37 47 -77 0 -23 -5 -76 -10 -117 -9 -64 -18 -88 -65 -165 -67 -112
-107 -200 -131 -290 -30 -113 -25 -342 15 -653 17 -140 29 -263 26 -273 -6
-17 -11 -15 -53 22 -55 49 -115 79 -157 79 -47 0 -129 -44 -161 -86 -27 -35
-29 -43 -29 -133 0 -87 4 -104 34 -175 40 -92 203 -340 267 -406 24 -25 44
-51 44 -57 0 -17 -47 -51 -80 -58 -40 -9 -70 -49 -70 -94 0 -86 46 -99 410
-112 151 -6 374 -8 495 -5 197 4 234 8 354 35 254 58 455 132 579 215 140 93
248 240 302 411 31 96 39 317 16 425 -29 138 -138 315 -190 308 -32 -5 -31
-41 3 -168 43 -158 57 -287 43 -393 -34 -261 -171 -420 -457 -531 -81 -31
-276 -86 -305 -86 -7 0 11 28 38 63 182 228 252 347 292 489 25 90 25 161 1
213 -23 49 -43 68 -105 96 -62 27 -126 22 -196 -14 l-50 -26 0 42 c0 23 11 98
24 167 47 239 60 350 60 520 0 202 -12 255 -91 395 -98 172 -141 259 -148 296
-7 39 -16 32 111 85 7 3 9 -15 6 -54 -6 -80 13 -161 50 -217 34 -51 91 -95
125 -95 33 0 76 43 113 112 38 72 67 111 162 220 150 172 153 244 20 495 -38
70 -113 213 -167 316 -113 215 -140 247 -210 247 -34 0 -53 -7 -90 -36 l-47
-35 -41 38 c-89 82 -193 123 -310 123 -90 0 -153 -18 -232 -65 -54 -33 -61
-35 -70 -19 -24 41 -61 78 -92 90 -40 17 -49 17 -90 -1z"/>
<path d="M651 2656 c-20 -24 -8 -183 25 -336 29 -129 29 -139 19 -275 -5 -62
-3 -90 10 -125 31 -85 31 -84 4 -77 -13 4 -79 10 -146 14 -90 4 -123 3 -123
-5 0 -8 26 -12 78 -12 134 -1 223 -17 251 -45 14 -13 22 -27 19 -31 -4 -3 -39
-10 -79 -15 -124 -15 -249 -51 -249 -71 0 -6 8 -7 18 -3 51 21 153 45 235 56
85 11 96 10 120 -6 15 -9 27 -20 27 -24 0 -3 -37 -17 -83 -31 -89 -26 -257
-105 -257 -121 0 -13 2 -13 84 30 41 22 120 54 176 72 l101 32 82 -43 c45 -24
84 -44 86 -46 2 -2 -15 -45 -37 -96 -83 -194 -119 -349 -129 -565 l-6 -141
-32 5 c-81 13 -145 -42 -145 -123 0 -115 91 -304 197 -413 l73 -74 -48 6 c-98
12 -152 36 -206 90 -62 62 -93 123 -107 208 -13 81 -6 151 33 314 68 284 32
496 -106 623 -99 90 -247 117 -352 64 -122 -62 -202 -245 -160 -368 40 -117
107 -168 222 -169 58 0 76 4 93 19 49 45 4 102 -89 113 -42 5 -62 13 -84 35
-26 26 -28 34 -24 82 5 65 29 98 92 131 168 85 291 -46 288 -310 -1 -68 -7
-124 -22 -175 -52 -189 -63 -328 -35 -448 55 -231 225 -345 560 -372 141 -12
469 2 577 25 158 33 289 127 423 303 151 200 175 323 80 412 -34 32 -97 33
-150 2 -20 -12 -37 -22 -38 -22 -1 0 -3 60 -3 133 -1 248 -66 463 -197 656
-17 25 -26 46 -20 48 6 2 49 23 96 47 l86 43 83 -27 c46 -14 120 -45 166 -68
89 -45 92 -46 92 -33 0 14 -128 77 -228 111 l-93 33 23 24 c20 22 28 23 78 17
77 -9 177 -30 229 -49 44 -15 68 -12 41 6 -30 18 -203 59 -257 59 -42 0 -46 9
-19 43 18 23 34 30 87 37 35 5 99 10 142 10 44 0 77 4 77 10 0 12 -129 12
-208 1 -55 -8 -68 -5 -53 13 16 19 41 118 41 161 0 23 -6 63 -14 88 -13 42
-12 54 5 121 25 98 59 301 59 354 0 87 -26 99 -132 58 -70 -26 -251 -115 -308
-151 -37 -23 -38 -24 -96 -7 -80 22 -334 22 -419 1 l-60 -15 -105 58 c-120 67
-256 126 -309 134 -27 4 -41 2 -50 -10z"/>
</g>
</svg>
