<?xml version="1.0" standalone="no"?>
<!DOCTYPE svg PUBLIC "-//W3C//DTD SVG 20010904//EN"
 "http://www.w3.org/TR/2001/REC-SVG-20010904/DTD/svg10.dtd">
<svg version="1.0" xmlns="http://www.w3.org/2000/svg"
 width="422.219012pt" height="374.954961pt" viewBox="0 0 422.219012 374.954961"
 preserveAspectRatio="xMidYMid meet">
<metadata>
Created by potrace 1.12, written by Peter Selinger 2001-2015
</metadata>
<g transform="translate(-6.678288,386.954961) scale(0.100000,-0.100000)"
fill="#f6ca38" stroke="none">
<path d="M970 3853 c-209 -37 -416 -147 -576 -307 -200 -200 -303 -426 -324
-709 -25 -347 92 -680 358 -1014 203 -255 657 -715 1162 -1177 102 -93 246
-226 320 -296 74 -69 160 -149 191 -178 33 -31 65 -52 79 -52 14 0 49 26 98
73 41 39 83 79 92 87 1003 921 1450 1371 1647 1661 80 118 169 295 209 414 79
239 84 511 13 741 -134 433 -536 747 -986 771 -310 16 -569 -82 -826 -311 -91
-82 -237 -246 -237 -267 0 -21 -18 -6 -59 51 -64 88 -263 276 -361 342 -237
159 -523 220 -800 171z m2436 -318 c94 -72 138 -207 104 -324 -46 -161 -217
-191 -311 -55 -61 89 -75 191 -39 287 44 117 157 160 246 92z m-541 -124 c49
-22 110 -88 138 -150 16 -34 22 -66 22 -121 0 -64 -4 -82 -27 -121 -59 -99
-171 -106 -266 -15 -79 76 -116 189 -93 283 30 118 125 170 226 124z m979
-141 c123 -75 94 -323 -46 -396 -41 -21 -105 -18 -140 8 -39 27 -68 93 -69
155 -4 171 141 304 255 233z m-551 -316 c18 -9 68 -47 112 -84 44 -37 123 -94
175 -126 179 -109 260 -214 260 -334 0 -69 -42 -147 -97 -181 -35 -22 -52 -24
-208 -29 -164 -5 -172 -6 -235 -37 -36 -17 -96 -51 -134 -77 -82 -54 -119 -63
-192 -47 -102 23 -165 102 -172 217 -6 92 10 146 91 304 35 69 74 157 88 195
30 89 60 145 91 168 61 45 164 60 221 31z m-684 -16 c77 -24 171 -147 171
-226 0 -109 -93 -172 -201 -137 -129 43 -224 208 -175 303 38 74 100 92 205
60z"/>
</g>
</svg>
