<?xml version="1.0" standalone="no"?>
<!DOCTYPE svg PUBLIC "-//W3C//DTD SVG 20010904//EN"
 "http://www.w3.org/TR/2001/REC-SVG-20010904/DTD/svg10.dtd">
<svg version="1.0" xmlns="http://www.w3.org/2000/svg"
 width="1973.214458pt" height="1333.000000pt" viewBox="0 0 1973.214458 1333.000000"
 preserveAspectRatio="xMidYMid meet">
<metadata>
Created by potrace 1.12, written by Peter Selinger 2001-2015
</metadata>
<g transform="translate(-26.753271,1333.000000) scale(0.100000,-0.100000)"
fill="#ffffff" stroke="none">
<path d="M18941 13285 c-65 -61 -95 -129 -89 -207 7 -98 70 -158 166 -158 71
0 130 28 181 86 85 96 92 223 19 301 -20 21 -30 23 -125 23 l-104 0 -48 -45z"/>
<path d="M18393 13159 c-87 -43 -142 -135 -143 -235 0 -47 5 -69 23 -95 55
-82 146 -102 245 -53 155 77 197 295 73 380 -47 32 -137 33 -198 3z"/>
<path d="M19416 13025 c-53 -19 -106 -63 -141 -120 -41 -66 -47 -161 -13 -220
26 -45 93 -85 143 -85 150 0 290 180 245 315 -33 101 -131 147 -234 110z"/>
<path d="M18765 12772 c-27 -11 -83 -40 -123 -67 -97 -62 -166 -85 -285 -96
-77 -6 -109 -14 -149 -36 -84 -46 -128 -121 -128 -221 0 -110 69 -204 175
-238 140 -46 256 -132 330 -246 62 -93 90 -125 140 -151 56 -30 164 -30 220 0
91 48 139 125 138 218 -1 33 -3 112 -4 175 -2 111 -1 118 35 215 62 166 52
265 -37 362 -83 90 -207 124 -312 85z"/>
<path d="M19360 12394 c-50 -22 -109 -81 -136 -139 -64 -135 9 -275 143 -275
64 0 107 16 157 60 87 77 119 194 74 280 -32 63 -77 90 -147 90 -31 -1 -72 -8
-91 -16z"/>
<path d="M17860 11741 c-182 -65 -239 -315 -89 -391 139 -71 338 64 339 229 0
134 -116 209 -250 162z"/>
<path d="M17260 11641 c-48 -15 -87 -40 -123 -80 -48 -54 -67 -101 -67 -171 0
-134 125 -207 258 -150 57 25 125 92 148 145 22 54 18 146 -9 186 -40 61 -133
92 -207 70z"/>
<path d="M18238 11396 c-122 -33 -207 -149 -196 -268 17 -169 236 -203 362
-56 139 161 28 376 -166 324z"/>
<path d="M19970 11238 c-38 -87 -34 -167 10 -220 l19 -23 1 143 c0 78 -3 142
-6 142 -3 0 -14 -19 -24 -42z"/>
<path d="M17540 11202 c-30 -10 -80 -33 -110 -49 -85 -48 -150 -63 -270 -63
-59 0 -122 -5 -141 -12 -60 -20 -114 -64 -142 -116 -36 -66 -43 -125 -24 -193
24 -80 70 -128 173 -179 123 -60 218 -152 278 -268 72 -140 141 -192 253 -192
98 1 182 51 226 135 17 33 22 66 27 190 8 156 13 180 73 300 39 79 50 123 45
188 -13 193 -204 320 -388 259z"/>
<path d="M19492 11199 c-84 -42 -152 -149 -152 -239 0 -49 38 -120 79 -147 69
-46 189 -24 260 48 102 102 106 260 8 333 -41 30 -139 33 -195 5z"/>
<path d="M19870 10811 c-31 -9 -88 -38 -127 -64 -100 -65 -161 -87 -289 -102
-126 -15 -176 -35 -223 -92 -66 -80 -75 -190 -24 -286 32 -57 75 -92 148 -117
147 -50 252 -133 343 -270 76 -113 124 -144 225 -144 l72 -1 0 545 0 545 -35
2 c-19 1 -60 -6 -90 -16z"/>
<path d="M18134 10779 c-55 -16 -127 -72 -159 -123 -26 -43 -30 -59 -30 -121
0 -63 3 -76 29 -109 80 -105 257 -81 343 48 80 119 61 239 -47 294 -46 23 -84
26 -136 11z"/>
<path d="M9530 10341 c-100 -31 -170 -112 -170 -196 0 -171 249 -246 391 -118
52 47 69 81 69 139 0 81 -56 150 -141 174 -39 12 -113 12 -149 1z"/>
<path d="M13267 10216 c-58 -16 -94 -41 -125 -87 -20 -28 -23 -44 -20 -91 9
-119 109 -198 252 -198 124 1 206 71 206 176 0 134 -166 240 -313 200z"/>
<path d="M12653 10114 c-51 -19 -119 -83 -141 -132 -13 -29 -16 -73 -17 -202
0 -190 -13 -241 -90 -365 -70 -114 -81 -195 -36 -284 42 -81 116 -131 207
-139 64 -5 105 8 186 60 92 60 160 87 246 99 207 27 246 41 311 115 48 55 71
122 71 208 0 112 -63 201 -195 276 -77 44 -175 141 -209 207 -34 69 -80 119
-130 145 -53 27 -147 33 -203 12z"/>
<path d="M15585 10088 c-125 -47 -201 -176 -161 -273 22 -52 43 -74 91 -96
146 -67 345 54 347 210 0 59 -21 101 -69 138 -31 24 -47 28 -107 30 -39 1 -84
-3 -101 -9z"/>
<path d="M10103 10070 c-53 -12 -122 -59 -151 -102 -21 -33 -27 -53 -27 -98 0
-74 34 -122 113 -157 171 -79 386 64 342 227 -26 98 -156 159 -277 130z"/>
<path d="M9001 10017 c-92 -35 -161 -136 -161 -237 0 -46 8 -72 49 -155 61
-122 87 -236 77 -334 -19 -190 -19 -200 -2 -245 36 -95 127 -155 234 -156 108
0 160 33 239 153 56 84 126 146 223 196 154 81 210 158 210 290 0 63 -5 87
-29 136 -48 102 -119 147 -273 171 -141 23 -184 43 -341 154 -43 31 -56 35
-120 37 -40 1 -87 -3 -106 -10z"/>
<path d="M16240 10009 c-99 -20 -192 -111 -206 -204 -5 -36 -2 -54 17 -92 54
-109 186 -134 310 -60 91 55 137 152 115 241 -21 83 -130 136 -236 115z"/>
<path d="M13679 9747 c-63 -18 -108 -53 -130 -101 -23 -50 -24 -85 -3 -134 36
-87 127 -142 234 -142 108 1 186 51 209 137 40 142 -146 285 -310 240z"/>
<path d="M15162 9614 c-83 -41 -134 -124 -135 -219 -1 -82 19 -121 107 -214
107 -113 186 -267 186 -361 0 -15 7 -50 16 -79 38 -131 190 -212 315 -169 91
31 152 103 178 213 23 92 68 171 153 262 46 50 92 110 105 140 61 133 2 306
-128 378 -52 29 -58 30 -159 26 -278 -9 -331 -6 -403 22 -91 36 -164 36 -235
1z"/>
<path d="M18745 9587 c-201 -96 -205 -375 -6 -395 74 -7 134 14 191 65 68 61
94 118 88 194 -7 99 -60 151 -161 156 -50 3 -72 -1 -112 -20z"/>
<path d="M10135 9556 c-95 -44 -147 -134 -125 -216 24 -88 101 -140 210 -139
110 0 191 44 229 123 27 55 26 103 -2 157 -49 93 -198 129 -312 75z"/>
<path d="M16450 9561 c-105 -32 -190 -135 -190 -230 0 -40 37 -104 76 -131 49
-33 146 -40 211 -15 180 69 223 290 70 364 -44 21 -118 27 -167 12z"/>
<path d="M18150 9525 c-141 -45 -222 -217 -155 -330 61 -105 224 -105 328 -1
47 47 67 85 74 146 17 141 -105 231 -247 185z"/>
<path d="M13558 9261 c-82 -27 -138 -95 -138 -169 0 -53 12 -82 51 -126 46
-53 102 -78 184 -84 63 -3 76 -1 125 25 184 97 92 346 -133 359 -34 2 -74 0
-89 -5z"/>
<path d="M19085 9216 c-97 -46 -155 -131 -155 -227 0 -69 23 -114 75 -144 137
-81 335 37 352 209 14 142 -132 229 -272 162z"/>
<path d="M9716 9125 c-82 -29 -156 -118 -156 -189 0 -45 37 -111 78 -139 179
-124 455 42 374 225 -43 99 -178 145 -296 103z"/>
<path d="M6769 9094 c-57 -17 -136 -86 -160 -139 -63 -137 46 -273 200 -250
197 30 302 248 172 358 -56 46 -128 57 -212 31z"/>
<path d="M18435 9083 c-11 -3 -55 -20 -97 -39 -114 -51 -192 -65 -318 -58 -85
5 -112 3 -144 -10 -62 -26 -99 -59 -131 -117 -41 -76 -41 -162 0 -238 31 -56
60 -81 165 -141 97 -54 184 -154 240 -275 69 -147 134 -197 256 -197 94 -1
177 50 220 133 20 41 26 68 29 151 5 123 23 188 80 293 55 102 79 184 71 242
-20 147 -150 264 -291 262 -33 -1 -69 -3 -80 -6z"/>
<path d="M7383 9017 c-94 -35 -173 -134 -173 -217 0 -128 138 -204 282 -154
180 61 228 295 74 365 -47 21 -134 24 -183 6z"/>
<path d="M12944 9007 c-67 -32 -97 -75 -102 -146 -4 -50 -1 -61 30 -105 41
-61 115 -105 191 -113 127 -13 237 68 237 174 0 54 -11 82 -51 127 -47 54
-102 78 -184 83 -59 3 -78 0 -121 -20z"/>
<path d="M16130 8989 c-93 -42 -150 -122 -150 -210 0 -93 61 -155 163 -166
152 -16 304 124 282 259 -8 47 -56 105 -102 124 -48 21 -140 17 -193 -7z"/>
<path d="M11597 8682 c-179 -64 -211 -262 -54 -344 64 -34 174 -32 244 5 59
30 96 74 113 132 43 146 -135 267 -303 207z"/>
<path d="M6376 8625 c-56 -20 -107 -65 -136 -121 -20 -38 -25 -63 -25 -119 1
-88 16 -119 107 -208 117 -115 175 -222 197 -365 6 -41 20 -90 30 -111 50 -96
167 -154 270 -133 111 23 171 87 208 220 33 116 70 184 155 278 90 101 110
141 116 230 4 61 1 80 -21 127 -71 156 -186 207 -384 172 -120 -22 -211 -16
-312 19 -82 29 -146 32 -205 11z"/>
<path d="M18975 8618 c-151 -54 -228 -226 -152 -339 63 -93 207 -96 314 -5 77
65 108 205 60 277 -43 65 -143 95 -222 67z"/>
<path d="M7615 8574 c-91 -32 -165 -131 -165 -219 0 -59 36 -115 90 -142 114
-58 274 -2 333 118 33 65 34 111 5 169 -42 81 -155 113 -263 74z"/>
<path d="M12192 8419 c-53 -10 -101 -39 -141 -84 -64 -74 -61 -169 8 -235 111
-106 320 -68 392 72 71 138 -81 283 -259 247z"/>
<path d="M11086 8365 c-56 -20 -107 -65 -136 -121 -20 -39 -25 -63 -24 -119 0
-63 5 -78 46 -156 76 -142 89 -241 62 -457 -10 -79 10 -136 70 -198 123 -126
292 -104 399 51 71 104 139 168 231 217 155 82 220 167 220 288 1 126 -57 226
-158 274 -30 14 -97 33 -151 41 -125 20 -182 44 -280 114 -44 32 -95 63 -114
69 -45 16 -117 14 -165 -3z"/>
<path d="M7344 8014 c-81 -29 -152 -109 -167 -190 -22 -116 95 -218 224 -194
67 13 94 26 139 66 96 87 111 216 33 286 -51 47 -149 60 -229 32z"/>
<path d="M16275 7997 c-90 -35 -154 -107 -163 -183 -6 -58 3 -87 40 -130 42
-48 83 -64 161 -64 232 0 349 282 153 371 -47 21 -144 24 -191 6z"/>
<path d="M9120 7961 c-105 -32 -190 -135 -190 -230 0 -46 40 -110 84 -136 118
-69 312 7 356 140 17 50 8 126 -18 163 -43 59 -149 88 -232 63z"/>
<path d="M12238 7915 c-55 -20 -97 -55 -125 -103 -21 -36 -25 -52 -21 -98 3
-33 13 -65 25 -82 68 -92 213 -114 327 -49 99 56 134 163 82 251 -49 83 -181
120 -288 81z"/>
<path d="M9761 7889 c-94 -18 -178 -94 -202 -182 -21 -79 15 -156 91 -195 106
-55 274 7 329 121 73 151 -45 290 -218 256z"/>
<path d="M16882 7841 c-157 -54 -217 -230 -112 -325 85 -77 222 -72 318 10
125 107 106 268 -37 319 -57 20 -104 19 -169 -4z"/>
<path d="M14260 7693 c-93 -34 -140 -89 -140 -165 0 -92 62 -170 162 -202 62
-20 100 -20 164 -1 54 16 106 62 123 108 37 97 -31 212 -148 252 -43 15 -131
19 -161 8z"/>
<path d="M13705 7604 c-90 -22 -150 -66 -188 -138 -19 -37 -21 -58 -22 -206
-1 -192 -14 -247 -89 -368 -68 -109 -80 -168 -51 -253 35 -102 129 -169 238
-169 67 0 98 11 186 68 89 58 157 81 288 97 62 8 133 23 157 34 107 47 171
159 164 286 -7 119 -58 192 -195 273 -93 55 -161 124 -218 222 -43 76 -68 101
-130 133 -34 17 -109 28 -140 21z"/>
<path d="M15831 7583 c-100 -36 -169 -150 -158 -258 7 -64 25 -101 87 -176 86
-103 140 -239 140 -351 0 -190 98 -308 254 -308 120 0 202 63 251 191 43 113
79 159 212 276 93 82 128 149 127 243 -1 116 -62 218 -162 267 -54 27 -64 28
-202 29 -160 0 -217 12 -324 66 -74 38 -159 46 -225 21z"/>
<path d="M8692 7474 c-87 -43 -136 -124 -136 -224 0 -86 21 -123 126 -230 101
-103 152 -197 175 -322 8 -46 20 -96 25 -111 36 -95 128 -157 234 -157 135 0
224 78 254 223 18 88 72 185 151 272 40 43 83 103 97 134 62 136 5 302 -130
376 -47 26 -63 30 -138 30 -47 0 -118 -6 -159 -14 -91 -16 -169 -9 -265 25
-94 33 -166 32 -234 -2z"/>
<path d="M11809 7477 c-88 -33 -138 -82 -159 -159 -23 -78 42 -176 134 -203
63 -19 100 -19 162 0 148 44 212 205 121 303 -55 59 -181 88 -258 59z"/>
<path d="M10001 7449 c-169 -33 -266 -225 -170 -334 90 -102 277 -76 368 49
35 50 50 118 37 170 -21 83 -130 136 -235 115z"/>
<path d="M17029 7357 c-208 -107 -161 -361 67 -360 204 1 333 218 202 340 -66
62 -173 70 -269 20z"/>
<path d="M14629 7202 c-162 -84 -115 -292 80 -349 101 -29 214 6 260 81 31 50
29 132 -5 182 -33 48 -46 59 -109 89 -72 35 -155 34 -226 -3z"/>
<path d="M5005 6926 c-55 -25 -119 -90 -141 -142 -20 -48 -18 -132 5 -174 94
-179 404 -53 404 164 0 142 -131 217 -268 152z"/>
<path d="M9665 6866 c-92 -44 -145 -121 -145 -214 0 -63 30 -109 90 -139 200
-102 458 154 317 314 -18 20 -46 42 -64 49 -52 22 -140 17 -198 -10z"/>
<path d="M16720 6855 c-59 -18 -123 -73 -149 -128 -74 -152 73 -295 250 -244
75 22 132 67 163 129 32 64 33 101 4 158 -43 84 -155 119 -268 85z"/>
<path d="M4419 6836 c-148 -53 -229 -209 -169 -326 45 -88 152 -116 255 -66
136 67 197 242 117 337 -50 60 -129 82 -203 55z"/>
<path d="M14583 6739 c-104 -19 -163 -83 -163 -177 0 -39 7 -60 33 -98 113
-169 407 -131 425 55 12 132 -141 246 -295 220z"/>
<path d="M7558 6616 c-49 -13 -63 -21 -116 -70 -136 -124 -91 -330 74 -344
210 -17 364 255 215 381 -28 23 -89 48 -116 46 -5 0 -31 -6 -57 -13z"/>
<path d="M5405 6591 c-78 -19 -144 -76 -181 -156 -30 -63 -30 -118 -1 -175 87
-174 378 -75 404 138 7 63 -9 110 -50 149 -50 47 -103 60 -172 44z"/>
<path d="M6904 6501 c-154 -72 -210 -282 -98 -370 105 -83 280 -20 345 124 27
58 25 143 -3 185 -38 55 -71 74 -141 77 -46 3 -73 -1 -103 -16z"/>
<path d="M13971 6496 c-78 -26 -131 -93 -131 -166 0 -56 20 -99 67 -141 57
-51 118 -72 195 -67 77 5 131 30 166 76 23 30 27 45 27 98 0 53 -4 69 -30 106
-59 82 -194 126 -294 94z"/>
<path d="M4740 6409 c-25 -5 -85 -29 -135 -53 -120 -59 -158 -68 -300 -70
-100 -2 -127 -5 -160 -23 -120 -63 -172 -192 -126 -315 27 -71 72 -112 176
-163 113 -56 214 -159 274 -278 52 -102 100 -150 175 -172 62 -19 80 -19 145
1 116 34 191 154 176 282 -10 92 10 184 67 306 43 91 52 120 56 181 4 62 1 80
-20 126 -60 131 -195 204 -328 178z"/>
<path d="M7895 6258 c-35 -12 -92 -52 -118 -82 -56 -65 -74 -179 -38 -246 96
-182 401 -54 401 168 0 65 -21 108 -72 145 -33 24 -127 32 -173 15z"/>
<path d="M7225 6077 c-22 -8 -73 -30 -112 -51 -96 -48 -176 -66 -303 -66 -119
0 -162 -14 -219 -71 -94 -93 -95 -256 -3 -352 15 -16 68 -49 117 -75 123 -63
214 -154 277 -277 26 -49 59 -102 75 -117 102 -97 272 -87 364 21 47 54 59 98
59 214 0 126 13 183 67 296 56 120 70 184 54 255 -19 84 -87 168 -171 211 -45
23 -153 29 -205 12z"/>
<path d="M5255 5956 c-57 -26 -117 -88 -141 -143 -24 -58 -15 -151 19 -196 72
-95 224 -84 321 23 48 54 69 102 69 165 0 141 -131 215 -268 151z"/>
<path d="M7822 5648 c-141 -24 -245 -189 -197 -313 24 -64 71 -98 145 -103 76
-6 119 10 178 63 171 154 86 391 -126 353z"/>
<path d="M3044 4634 c-96 -34 -174 -140 -174 -237 0 -64 20 -109 64 -142 118
-90 316 7 356 174 35 148 -97 258 -246 205z"/>
<path d="M2414 4526 c-46 -20 -112 -83 -137 -130 -30 -58 -30 -163 -1 -203 38
-51 81 -73 144 -73 70 0 117 19 171 67 82 74 109 181 67 263 -33 65 -76 90
-152 90 -34 -1 -75 -7 -92 -14z"/>
<path d="M3384 4276 c-46 -20 -112 -83 -136 -129 -31 -63 -34 -133 -6 -187 33
-64 76 -90 150 -90 73 0 114 17 171 69 60 55 91 127 85 198 -5 60 -27 96 -78
131 -39 26 -135 30 -186 8z"/>
<path d="M5388 4126 c-245 -66 -269 -416 -28 -416 110 0 215 80 246 188 44
151 -68 268 -218 228z"/>
<path d="M2740 4103 c-8 -3 -62 -27 -120 -53 -121 -56 -208 -75 -300 -66 -93
9 -158 -12 -220 -72 -104 -101 -103 -260 2 -358 18 -17 71 -51 117 -75 114
-58 202 -146 260 -259 76 -147 137 -194 256 -194 104 0 179 46 228 139 17 33
21 60 23 160 1 141 10 176 72 310 78 167 70 274 -27 379 -62 67 -127 96 -211
95 -36 0 -72 -3 -80 -6z"/>
<path d="M4723 4005 c-142 -72 -196 -246 -107 -344 104 -116 314 -44 372 128
27 77 1 169 -59 212 -51 36 -139 38 -206 4z"/>
<path d="M5719 3766 c-118 -42 -201 -182 -170 -285 25 -86 108 -140 193 -127
97 15 195 99 219 190 43 160 -86 278 -242 222z"/>
<path d="M3300 3665 c-62 -19 -123 -75 -156 -140 -22 -46 -26 -65 -22 -115 7
-93 59 -149 146 -158 127 -12 253 88 276 220 15 85 -40 175 -119 197 -50 14
-69 13 -125 -4z"/>
<path d="M5055 3586 c-22 -7 -78 -31 -125 -53 -105 -51 -163 -63 -291 -63
-145 0 -210 -32 -264 -131 -24 -44 -29 -66 -29 -119 1 -112 52 -183 177 -244
129 -63 221 -154 287 -287 64 -126 120 -169 232 -177 59 -4 75 -1 122 22 108
53 146 129 146 295 0 124 12 174 71 296 38 78 44 100 48 168 3 68 0 84 -23
132 -67 135 -216 204 -351 161z"/>
<path d="M5595 3141 c-48 -22 -107 -80 -132 -130 -26 -53 -25 -160 3 -198 57
-77 158 -97 253 -48 163 82 199 308 61 377 -46 24 -133 23 -185 -1z"/>
<path d="M1299 2316 c-87 -31 -146 -88 -174 -167 -62 -173 92 -306 260 -225
142 70 199 247 110 345 -51 56 -123 73 -196 47z"/>
<path d="M644 2196 c-129 -60 -190 -225 -121 -328 66 -97 222 -94 319 6 55 56
73 101 73 178 0 74 -16 105 -75 146 -46 31 -127 30 -196 -2z"/>
<path d="M3508 2207 c-104 -33 -177 -124 -185 -230 -5 -80 22 -132 87 -164
199 -101 440 185 293 348 -50 55 -116 71 -195 46z"/>
<path d="M2852 2088 c-82 -40 -152 -149 -152 -238 0 -36 40 -110 72 -134 39
-28 135 -34 193 -12 59 23 138 109 155 170 25 91 1 165 -70 214 -44 30 -137
30 -198 0z"/>
<path d="M1625 1951 c-143 -65 -206 -240 -124 -345 94 -119 325 -46 380 121
16 49 7 138 -18 171 -11 15 -35 37 -53 50 -42 28 -127 30 -185 3z"/>
<path d="M3819 1835 c-162 -84 -196 -304 -59 -376 39 -21 122 -25 167 -8 52
19 102 61 135 112 29 46 33 59 33 123 0 81 -15 111 -75 152 -47 31 -138 30
-201 -3z"/>
<path d="M951 1770 c-29 -11 -65 -27 -78 -35 -14 -9 -55 -28 -91 -42 -58 -22
-85 -26 -199 -29 -116 -2 -137 -6 -180 -27 -88 -45 -136 -123 -135 -222 0
-115 48 -182 186 -252 122 -64 218 -158 271 -267 69 -145 131 -190 255 -191
64 0 82 4 122 28 97 56 127 124 128 283 0 123 13 181 65 284 46 92 57 133 57
204 -1 77 -21 125 -80 189 -87 93 -200 120 -321 77z"/>
<path d="M3175 1666 c-22 -7 -73 -30 -114 -50 -93 -47 -180 -66 -301 -64 -106
2 -143 -9 -202 -61 -51 -45 -80 -113 -80 -186 0 -110 51 -184 165 -241 143
-70 231 -156 298 -289 22 -44 53 -93 67 -108 93 -99 255 -100 355 -3 60 58 77
112 77 245 0 125 14 182 69 293 82 164 72 285 -33 389 -80 81 -193 109 -301
75z"/>
<path d="M1565 1351 c-112 -28 -195 -126 -202 -241 -3 -44 1 -63 19 -94 34
-58 68 -79 138 -84 50 -4 69 0 115 22 87 43 155 142 155 224 0 79 -54 151
-127 171 -42 12 -55 12 -98 2z"/>
<path d="M3759 1236 c-87 -31 -146 -88 -174 -167 -62 -174 92 -307 260 -225
142 70 199 247 110 345 -51 56 -123 73 -196 47z"/>
<path d="M1813 501 c-117 -29 -203 -136 -203 -254 0 -139 140 -210 278 -141
157 78 197 294 69 372 -38 24 -100 33 -144 23z"/>
<path d="M1145 376 c-141 -65 -200 -243 -113 -341 l30 -35 109 0 109 0 46 42
c56 52 84 105 91 172 13 144 -129 229 -272 162z"/>
<path d="M2112 124 c-47 -23 -122 -95 -122 -116 0 -4 90 -8 201 -8 l200 0 -6
23 c-35 115 -155 160 -273 101z"/>
</g>
</svg>
