<?xml version="1.0" standalone="no"?>
<!DOCTYPE svg PUBLIC "-//W3C//DTD SVG 20010904//EN"
 "http://www.w3.org/TR/2001/REC-SVG-20010904/DTD/svg10.dtd">
<svg version="1.0" xmlns="http://www.w3.org/2000/svg"
 width="1869.931377pt" height="1050.339847pt" viewBox="0 0 1869.931377 1050.339847"
 preserveAspectRatio="xMidYMid meet">
<metadata>
Created by potrace 1.12, written by Peter Selinger 2001-2015
</metadata>
<g transform="translate(-29.714988,1184.332550) scale(0.100000,-0.100000)"
fill="#000000" stroke="none">
<path d="M1005 11839 c-22 -4 -70 -19 -108 -33 -48 -19 -87 -26 -135 -26 -163
0 -294 -29 -330 -73 -43 -51 114 -171 279 -213 85 -22 162 -14 230 22 106 58
213 180 226 257 5 31 2 37 -23 50 -39 19 -91 25 -139 16z"/>
<path d="M3350 11711 c-25 -10 -72 -35 -105 -55 -65 -40 -78 -44 -242 -75
-262 -49 -345 -121 -230 -198 106 -71 293 -117 452 -111 88 3 107 7 153 33
107 58 199 195 209 313 4 47 2 61 -15 82 -18 22 -29 25 -99 27 -58 2 -89 -2
-123 -16z"/>
<path d="M1175 11664 c-67 -35 -76 -97 -21 -148 107 -102 324 -52 276 64 -33
80 -174 126 -255 84z"/>
<path d="M3680 11569 c-46 -19 -70 -50 -70 -90 0 -75 113 -139 244 -139 177 1
229 132 82 207 -42 22 -67 27 -141 30 -49 1 -101 -2 -115 -8z"/>
<path d="M426 11495 c-39 -14 -99 -64 -118 -99 -20 -36 -12 -89 17 -113 64
-55 221 3 256 95 37 97 -43 157 -155 117z"/>
<path d="M988 11424 c-51 -27 -64 -93 -29 -150 23 -37 111 -84 158 -84 109 0
166 88 110 171 -45 68 -170 101 -239 63z"/>
<path d="M669 11357 c-51 -34 -79 -82 -79 -134 0 -38 6 -51 34 -79 28 -28 42
-34 75 -34 80 0 147 48 171 123 15 47 0 98 -37 127 -37 29 -119 28 -164 -3z"/>
<path d="M3564 11266 c-97 -42 -79 -158 32 -218 98 -52 211 -58 277 -14 122
83 -22 247 -216 246 -34 -1 -76 -7 -93 -14z"/>
<path d="M2875 11241 c-72 -18 -123 -60 -150 -123 -19 -47 -19 -62 2 -105 44
-94 205 -90 286 7 71 84 44 192 -54 220 -38 11 -41 11 -84 1z"/>
<path d="M3232 11147 c-43 -13 -99 -77 -108 -122 -15 -82 56 -175 145 -190
120 -20 230 86 201 194 -26 97 -134 152 -238 118z"/>
<path d="M2988 9885 c-83 -23 -133 -59 -188 -139 -50 -72 -55 -76 -171 -138
-197 -104 -279 -172 -279 -235 0 -59 129 -87 365 -80 356 12 530 82 565 229
24 97 -9 228 -77 308 -59 68 -115 83 -215 55z"/>
<path d="M3495 9856 c-187 -46 -221 -157 -67 -217 77 -31 250 -33 330 -5 141
49 163 141 47 199 -73 36 -214 47 -310 23z"/>
<path d="M6366 9859 c-67 -10 -149 -45 -186 -80 -14 -13 -45 -50 -67 -81 -52
-70 -64 -78 -244 -166 -193 -94 -281 -173 -265 -237 22 -88 458 -116 751 -48
202 47 279 130 278 303 0 96 -23 169 -73 239 -48 65 -98 83 -194 70z"/>
<path d="M6844 9796 c-94 -30 -154 -81 -154 -130 0 -29 61 -85 118 -108 49
-19 75 -22 182 -22 106 0 134 4 182 23 149 58 156 160 16 221 -44 20 -74 24
-178 27 -85 2 -138 -1 -166 -11z"/>
<path d="M3595 9515 c-27 -8 -53 -14 -57 -15 -4 0 -23 -14 -43 -31 -78 -69
-17 -153 140 -195 70 -19 229 -18 295 2 59 18 120 69 120 102 0 28 -45 79 -91
102 -92 47 -261 63 -364 35z"/>
<path d="M6975 9430 c-102 -20 -175 -73 -175 -125 0 -31 52 -91 100 -115 106
-54 302 -71 414 -35 67 21 126 71 126 106 0 114 -263 209 -465 169z"/>
<path d="M3286 9269 c-116 -28 -156 -108 -100 -195 87 -134 331 -179 431 -79
99 99 -37 259 -237 278 -30 3 -73 2 -94 -4z"/>
<path d="M2740 9214 c-138 -60 -140 -212 -3 -286 67 -36 128 -44 196 -24 59
17 111 65 123 111 34 134 -170 262 -316 199z"/>
<path d="M6566 9156 c-117 -44 -139 -151 -50 -246 107 -114 325 -147 423 -64
93 78 43 213 -105 285 -55 27 -80 33 -147 36 -54 2 -95 -2 -121 -11z"/>
<path d="M6016 9126 c-117 -44 -161 -146 -106 -243 41 -74 118 -113 222 -113
160 0 253 123 188 250 -46 91 -201 144 -304 106z"/>
<path d="M6781 7634 c-77 -21 -142 -51 -175 -82 -15 -15 -53 -64 -83 -109 -59
-89 -71 -98 -258 -198 -146 -77 -227 -138 -269 -200 -66 -96 -12 -142 196
-166 185 -21 508 8 683 62 205 63 278 146 277 314 0 131 -57 265 -145 340 -65
56 -126 66 -226 39z"/>
<path d="M11101 7625 c-175 -32 -250 -80 -347 -225 -37 -56 -81 -112 -98 -125
-17 -12 -98 -58 -181 -100 -192 -100 -274 -153 -340 -219 -94 -94 -97 -168
-10 -207 90 -40 187 -52 415 -52 241 -1 388 15 573 62 211 53 310 117 362 232
72 162 24 403 -111 548 -80 87 -144 108 -263 86z"/>
<path d="M7430 7605 c-95 -22 -184 -68 -210 -110 -101 -163 298 -271 568 -155
121 52 149 148 62 210 -82 58 -287 85 -420 55z"/>
<path d="M11872 7580 c-218 -40 -348 -155 -284 -252 115 -175 626 -184 795
-14 32 31 37 43 37 81 0 75 -70 135 -203 171 -64 18 -273 26 -345 14z"/>
<path d="M7544 7171 c-232 -66 -221 -217 21 -294 60 -19 92 -22 220 -22 133 1
157 3 208 24 66 26 115 64 128 98 19 51 -39 126 -126 163 -118 51 -332 65
-451 31z"/>
<path d="M12055 7061 c-221 -36 -332 -138 -265 -246 38 -62 153 -122 283 -149
88 -19 276 -21 362 -5 77 14 173 58 208 97 125 133 -101 296 -428 307 -60 2
-133 0 -160 -4z"/>
<path d="M7171 6860 c-59 -13 -128 -55 -146 -90 -19 -38 -19 -93 1 -136 23
-48 96 -111 167 -144 158 -74 342 -57 414 37 61 80 16 190 -111 271 -82 52
-233 81 -325 62z"/>
<path d="M6486 6786 c-147 -55 -188 -197 -89 -307 128 -141 393 -134 469 13
16 31 18 105 4 142 -17 45 -88 113 -143 136 -66 29 -185 37 -241 16z"/>
<path d="M11527 6670 c-77 -13 -154 -56 -185 -103 -54 -81 -29 -180 68 -271
181 -169 531 -184 637 -27 30 44 31 119 3 177 -48 98 -197 193 -347 219 -87
16 -106 16 -176 5z"/>
<path d="M10677 6584 c-67 -21 -151 -103 -167 -164 -40 -150 94 -301 294 -332
133 -20 253 25 321 121 26 37 30 51 30 109 0 55 -5 75 -27 113 -35 59 -88 105
-158 138 -70 32 -217 40 -293 15z"/>
<path d="M11035 5316 c-130 -26 -212 -65 -334 -158 -162 -122 -216 -161 -257
-179 -22 -10 -156 -50 -296 -89 -380 -104 -517 -157 -638 -246 -64 -47 -120
-122 -120 -161 0 -33 63 -98 134 -138 133 -73 434 -153 706 -187 60 -7 199
-13 325 -12 261 1 375 20 514 85 72 33 99 54 175 132 103 104 162 198 208 332
75 219 77 406 4 528 -48 80 -91 99 -235 103 -72 2 -143 -2 -186 -10z"/>
<path d="M11967 5039 c-134 -18 -262 -77 -312 -143 -91 -121 -18 -260 185
-355 300 -140 755 -85 844 103 72 152 -99 321 -386 381 -91 20 -246 26 -331
14z"/>
<path d="M16746 4719 c-152 -22 -297 -79 -500 -197 -189 -110 -308 -170 -385
-197 -70 -24 -183 -44 -536 -95 -587 -86 -905 -183 -1098 -335 -149 -118 -156
-216 -25 -344 235 -230 891 -475 1433 -536 28 -3 68 -7 90 -10 275 -30 545 -5
747 71 290 109 608 425 803 799 104 198 149 353 150 515 0 107 -2 119 -28 173
-47 95 -103 125 -281 152 -111 16 -274 18 -370 4z"/>
<path d="M11774 4275 c-165 -36 -264 -123 -264 -232 0 -145 168 -295 415 -369
73 -21 117 -27 231 -31 192 -7 307 20 393 93 54 46 74 86 74 149 2 167 -228
339 -520 390 -104 18 -246 18 -329 0z"/>
<path d="M17990 4134 c-129 -12 -274 -55 -364 -108 -58 -34 -118 -95 -153
-153 -24 -42 -28 -58 -28 -128 0 -111 30 -173 133 -274 83 -82 146 -123 269
-176 184 -80 435 -119 619 -96 134 16 204 35 301 82 289 139 307 416 41 628
-115 91 -315 176 -483 206 -88 15 -265 25 -335 19z"/>
<path d="M9910 4011 c-88 -28 -140 -60 -202 -122 -76 -75 -111 -150 -116 -244
-7 -129 38 -220 145 -292 254 -170 638 -10 693 287 30 163 -71 318 -242 372
-77 23 -203 23 -278 -1z"/>
<path d="M10962 3895 c-123 -27 -214 -91 -267 -186 -27 -49 -30 -62 -30 -149
0 -87 3 -101 32 -160 85 -174 297 -291 498 -277 298 21 454 263 331 512 -64
129 -198 225 -361 260 -84 18 -120 18 -203 0z"/>
<path d="M17427 2998 c-154 -17 -314 -90 -390 -178 -64 -75 -82 -125 -81 -225
0 -75 4 -99 26 -147 92 -201 298 -363 574 -453 253 -83 536 -77 732 15 77 36
166 118 200 185 37 72 42 178 12 265 -111 332 -619 588 -1073 538z"/>
<path d="M14700 2943 c-311 -49 -562 -234 -666 -491 -113 -280 12 -542 301
-628 42 -13 93 -18 170 -18 123 0 195 15 315 67 359 156 559 535 428 813 -49
106 -169 201 -300 239 -55 16 -197 26 -248 18z"/>
<path d="M16051 2559 c-258 -51 -466 -234 -526 -466 -20 -76 -19 -234 1 -304
41 -138 134 -262 259 -344 185 -121 463 -140 665 -44 202 95 339 274 372 483
39 252 -106 506 -354 621 -125 57 -291 79 -417 54z"/>
</g>
</svg>
